<svg width="480" height="64" viewBox="0 0 480 64" fill="none" xmlns="http://www.w3.org/2000/svg">
<path d="M82.448 26C82.288 26 82.152 25.944 82.04 25.832C81.928 25.72 81.872 25.584 81.872 25.424V9.8C81.872 9.624 81.92 9.48 82.016 9.368C82.128 9.256 82.272 9.2 82.448 9.2H89.408C91.28 9.2 92.68 9.616 93.608 10.448C94.536 11.264 95 12.384 95 13.808C95 14.64 94.792 15.352 94.376 15.944C93.976 16.52 93.504 16.936 92.96 17.192C93.632 17.496 94.2 17.992 94.664 18.68C95.128 19.368 95.36 20.152 95.36 21.032C95.36 22.52 94.856 23.72 93.848 24.632C92.84 25.544 91.432 26 89.624 26H82.448ZM88.976 16.088C89.792 16.088 90.416 15.888 90.848 15.488C91.296 15.088 91.52 14.552 91.52 13.88C91.52 13.208 91.304 12.688 90.872 12.32C90.44 11.952 89.808 11.768 88.976 11.768H85.256V16.088H88.976ZM89.216 23.432C90.048 23.432 90.696 23.208 91.16 22.76C91.624 22.296 91.856 21.712 91.856 21.008C91.856 20.304 91.616 19.728 91.136 19.28C90.672 18.816 90.032 18.584 89.216 18.584H85.256V23.432H89.216ZM102.693 26.24C101.221 26.24 100.061 25.76 99.2126 24.8C98.3646 23.84 97.9406 22.52 97.9406 20.84V14.096C97.9406 13.92 97.9966 13.784 98.1086 13.688C98.2206 13.576 98.3566 13.52 98.5166 13.52H100.677C100.837 13.52 100.973 13.576 101.085 13.688C101.197 13.8 101.253 13.936 101.253 14.096V20.696C101.253 22.664 102.109 23.648 103.821 23.648C104.653 23.648 105.309 23.384 105.789 22.856C106.285 22.328 106.533 21.608 106.533 20.696V14.096C106.533 13.92 106.589 13.784 106.701 13.688C106.813 13.576 106.949 13.52 107.109 13.52H109.245C109.421 13.52 109.557 13.576 109.653 13.688C109.765 13.784 109.821 13.92 109.821 14.096V25.424C109.821 25.584 109.765 25.72 109.653 25.832C109.557 25.944 109.421 26 109.245 26H107.253C107.093 26 106.957 25.944 106.845 25.832C106.733 25.72 106.677 25.584 106.677 25.424V24.44C105.797 25.64 104.469 26.24 102.693 26.24ZM115.246 30.56C115.118 30.56 114.998 30.512 114.886 30.416C114.79 30.32 114.742 30.208 114.742 30.08C114.742 29.968 114.774 29.84 114.838 29.696L116.734 25.256L112.126 14.384C112.062 14.24 112.03 14.128 112.03 14.048C112.046 13.904 112.102 13.784 112.198 13.688C112.294 13.576 112.414 13.52 112.558 13.52H114.55C114.838 13.52 115.046 13.672 115.174 13.976L118.366 21.8L121.606 13.976C121.766 13.672 121.99 13.52 122.278 13.52H124.222C124.366 13.52 124.486 13.568 124.582 13.664C124.678 13.76 124.726 13.872 124.726 14C124.726 14.112 124.694 14.24 124.63 14.384L117.838 30.104C117.71 30.408 117.486 30.56 117.166 30.56H115.246ZM135.247 26.24C134.431 26.24 133.679 26.08 132.991 25.76C132.319 25.424 131.783 24.976 131.383 24.416C130.999 23.856 130.807 23.24 130.807 22.568C130.807 21.48 131.247 20.6 132.127 19.928C133.007 19.256 134.215 18.8 135.751 18.56L139.039 18.08V17.576C139.039 16.888 138.863 16.368 138.511 16.016C138.159 15.664 137.599 15.488 136.831 15.488C136.303 15.488 135.879 15.584 135.559 15.776C135.239 15.968 134.975 16.168 134.767 16.376C134.575 16.568 134.447 16.696 134.383 16.76C134.319 16.952 134.199 17.048 134.023 17.048H132.151C132.007 17.048 131.879 17 131.767 16.904C131.671 16.808 131.623 16.68 131.623 16.52C131.639 16.12 131.831 15.672 132.199 15.176C132.583 14.664 133.167 14.224 133.951 13.856C134.735 13.472 135.703 13.28 136.855 13.28C138.743 13.28 140.119 13.704 140.983 14.552C141.847 15.4 142.279 16.512 142.279 17.888V25.424C142.279 25.584 142.223 25.72 142.111 25.832C142.015 25.944 141.879 26 141.703 26H139.711C139.551 26 139.415 25.944 139.303 25.832C139.191 25.72 139.135 25.584 139.135 25.424V24.488C138.783 25 138.287 25.424 137.647 25.76C137.007 26.08 136.207 26.24 135.247 26.24ZM136.063 23.936C136.943 23.936 137.663 23.648 138.223 23.072C138.783 22.496 139.063 21.664 139.063 20.576V20.096L136.663 20.48C134.823 20.768 133.903 21.384 133.903 22.328C133.903 22.84 134.111 23.24 134.527 23.528C134.959 23.8 135.471 23.936 136.063 23.936ZM151.418 26C151.258 26 151.122 25.944 151.01 25.832C150.898 25.72 150.842 25.584 150.842 25.424V9.536C150.842 9.36 150.898 9.224 151.01 9.128C151.122 9.016 151.258 8.96 151.418 8.96H153.602C153.778 8.96 153.914 9.016 154.01 9.128C154.122 9.224 154.178 9.36 154.178 9.536V15.008C155.138 13.856 156.426 13.28 158.042 13.28C159.514 13.28 160.69 13.768 161.57 14.744C162.45 15.704 162.89 17.016 162.89 18.68V25.424C162.89 25.584 162.834 25.72 162.722 25.832C162.626 25.944 162.49 26 162.314 26H160.13C159.954 26 159.81 25.944 159.698 25.832C159.586 25.72 159.53 25.584 159.53 25.424V18.824C159.53 17.896 159.298 17.176 158.834 16.664C158.386 16.136 157.738 15.872 156.89 15.872C156.074 15.872 155.418 16.136 154.922 16.664C154.426 17.192 154.178 17.912 154.178 18.824V25.424C154.178 25.584 154.122 25.72 154.01 25.832C153.914 25.944 153.778 26 153.602 26H151.418ZM171.48 26.24C169.592 26.24 168.136 25.76 167.112 24.8C166.088 23.84 165.536 22.512 165.456 20.816L165.432 19.76L165.456 18.704C165.536 17.024 166.096 15.704 167.136 14.744C168.176 13.768 169.624 13.28 171.48 13.28C173.32 13.28 174.76 13.768 175.8 14.744C176.84 15.704 177.4 17.024 177.48 18.704C177.496 18.896 177.504 19.248 177.504 19.76C177.504 20.272 177.496 20.624 177.48 20.816C177.4 22.512 176.848 23.84 175.824 24.8C174.8 25.76 173.352 26.24 171.48 26.24ZM171.48 23.816C172.328 23.816 172.976 23.552 173.424 23.024C173.888 22.496 174.136 21.72 174.168 20.696C174.184 20.536 174.192 20.224 174.192 19.76C174.192 19.296 174.184 18.984 174.168 18.824C174.136 17.8 173.888 17.024 173.424 16.496C172.96 15.952 172.312 15.68 171.48 15.68C170.632 15.68 169.976 15.952 169.512 16.496C169.048 17.024 168.8 17.8 168.768 18.824L168.744 19.76L168.768 20.696C168.8 21.72 169.048 22.496 169.512 23.024C169.976 23.552 170.632 23.816 171.48 23.816ZM184.794 26.24C183.322 26.24 182.162 25.76 181.314 24.8C180.466 23.84 180.042 22.52 180.042 20.84V14.096C180.042 13.92 180.098 13.784 180.21 13.688C180.322 13.576 180.458 13.52 180.618 13.52H182.778C182.938 13.52 183.074 13.576 183.186 13.688C183.298 13.8 183.354 13.936 183.354 14.096V20.696C183.354 22.664 184.21 23.648 185.922 23.648C186.754 23.648 187.41 23.384 187.89 22.856C188.386 22.328 188.634 21.608 188.634 20.696V14.096C188.634 13.92 188.69 13.784 188.802 13.688C188.914 13.576 189.05 13.52 189.21 13.52H191.346C191.522 13.52 191.658 13.576 191.754 13.688C191.866 13.784 191.922 13.92 191.922 14.096V25.424C191.922 25.584 191.866 25.72 191.754 25.832C191.658 25.944 191.522 26 191.346 26H189.354C189.194 26 189.058 25.944 188.946 25.832C188.834 25.72 188.778 25.584 188.778 25.424V24.44C187.898 25.64 186.57 26.24 184.794 26.24ZM199.844 26.24C198.628 26.24 197.612 26.056 196.796 25.688C195.98 25.32 195.372 24.896 194.972 24.416C194.588 23.92 194.396 23.496 194.396 23.144C194.396 22.984 194.444 22.856 194.54 22.76C194.652 22.664 194.78 22.616 194.924 22.616H196.892C197.02 22.616 197.132 22.68 197.228 22.808C197.308 22.872 197.484 23.024 197.756 23.264C198.044 23.504 198.364 23.696 198.716 23.84C199.084 23.968 199.484 24.032 199.916 24.032C200.556 24.032 201.076 23.912 201.476 23.672C201.876 23.416 202.076 23.056 202.076 22.592C202.076 22.272 201.98 22.016 201.788 21.824C201.612 21.616 201.284 21.432 200.804 21.272C200.34 21.096 199.636 20.904 198.692 20.696C197.332 20.408 196.324 19.968 195.668 19.376C195.028 18.784 194.708 18 194.708 17.024C194.708 16.384 194.9 15.784 195.284 15.224C195.668 14.648 196.236 14.184 196.988 13.832C197.756 13.464 198.668 13.28 199.724 13.28C200.812 13.28 201.748 13.456 202.532 13.808C203.316 14.144 203.908 14.552 204.308 15.032C204.724 15.512 204.932 15.936 204.932 16.304C204.932 16.448 204.876 16.576 204.764 16.688C204.668 16.784 204.548 16.832 204.404 16.832H202.604C202.428 16.832 202.292 16.768 202.196 16.64C202.084 16.56 201.9 16.416 201.644 16.208C201.404 15.984 201.132 15.808 200.828 15.68C200.524 15.552 200.156 15.488 199.724 15.488C199.132 15.488 198.676 15.616 198.356 15.872C198.036 16.128 197.876 16.464 197.876 16.88C197.876 17.168 197.948 17.408 198.092 17.6C198.252 17.792 198.564 17.976 199.028 18.152C199.492 18.312 200.188 18.48 201.116 18.656C203.996 19.216 205.436 20.472 205.436 22.424C205.436 23.56 204.94 24.48 203.948 25.184C202.972 25.888 201.604 26.24 199.844 26.24ZM213.289 26.24C211.497 26.24 210.073 25.728 209.017 24.704C207.977 23.68 207.425 22.224 207.361 20.336L207.337 19.736C207.337 17.736 207.857 16.16 208.897 15.008C209.953 13.856 211.409 13.28 213.265 13.28C215.169 13.28 216.633 13.856 217.657 15.008C218.697 16.16 219.217 17.696 219.217 19.616V20.12C219.217 20.28 219.161 20.416 219.049 20.528C218.937 20.64 218.793 20.696 218.617 20.696H210.649V20.888C210.681 21.784 210.921 22.528 211.369 23.12C211.833 23.696 212.465 23.984 213.265 23.984C214.177 23.984 214.921 23.616 215.497 22.88C215.641 22.704 215.753 22.6 215.833 22.568C215.913 22.52 216.049 22.496 216.241 22.496H218.353C218.497 22.496 218.617 22.536 218.713 22.616C218.825 22.696 218.881 22.808 218.881 22.952C218.881 23.336 218.649 23.792 218.185 24.32C217.737 24.832 217.089 25.28 216.241 25.664C215.393 26.048 214.409 26.24 213.289 26.24ZM215.905 18.656V18.608C215.905 17.664 215.665 16.912 215.185 16.352C214.721 15.776 214.081 15.488 213.265 15.488C212.449 15.488 211.809 15.776 211.345 16.352C210.881 16.912 210.649 17.664 210.649 18.608V18.656H215.905Z" fill="#1E2A32"/>
<path d="M85.12 42.28C87.008 42.28 88.368 43.0267 89.2 44.52L88.096 45.416C87.776 44.712 87.392 44.216 86.944 43.928C86.5067 43.6293 85.904 43.48 85.136 43.48C84.3253 43.48 83.6853 43.6507 83.216 43.992C82.7573 44.3227 82.528 44.7493 82.528 45.272C82.528 45.6133 82.6187 45.896 82.8 46.12C82.9813 46.344 83.28 46.5413 83.696 46.712C84.1227 46.872 84.7093 47.016 85.456 47.144C86.8533 47.3787 87.84 47.7307 88.416 48.2C89.0027 48.6693 89.296 49.32 89.296 50.152C89.296 50.7493 89.1253 51.2773 88.784 51.736C88.4533 52.184 87.9787 52.536 87.36 52.792C86.7413 53.0373 86.0267 53.16 85.216 53.16C84.1493 53.16 83.2373 52.952 82.48 52.536C81.7333 52.12 81.1627 51.5653 80.768 50.872L81.872 49.976C82.16 50.6053 82.5813 51.096 83.136 51.448C83.7013 51.7893 84.4053 51.96 85.248 51.96C86.08 51.96 86.7413 51.8107 87.232 51.512C87.7227 51.2027 87.968 50.7707 87.968 50.216C87.968 49.7467 87.7547 49.3733 87.328 49.096C86.9013 48.8187 86.144 48.584 85.056 48.392C83.648 48.1467 82.6507 47.7947 82.064 47.336C81.4773 46.8773 81.184 46.2373 81.184 45.416C81.184 44.8507 81.344 44.328 81.664 43.848C81.984 43.368 82.4427 42.9893 83.04 42.712C83.6373 42.424 84.3307 42.28 85.12 42.28ZM98.1418 52.072C98.3551 52.072 98.5684 52.0453 98.7818 51.992L98.7018 53C98.4031 53.1067 98.0831 53.16 97.7418 53.16C97.3258 53.16 96.9951 53.0693 96.7498 52.888C96.5151 52.7067 96.3658 52.4027 96.3018 51.976C96.0564 52.3493 95.6938 52.6427 95.2138 52.856C94.7444 53.0587 94.2484 53.16 93.7258 53.16C92.9364 53.16 92.2858 52.9787 91.7738 52.616C91.2618 52.2427 91.0058 51.7093 91.0058 51.016C91.0058 50.408 91.2724 49.8853 91.8058 49.448C92.3391 49 93.1124 48.6907 94.1258 48.52L96.2538 48.168V47.72C96.2538 47.1867 96.0884 46.76 95.7578 46.44C95.4271 46.12 94.9684 45.96 94.3818 45.96C93.8484 45.96 93.3844 46.088 92.9898 46.344C92.6058 46.6 92.3071 46.9787 92.0938 47.48L91.1497 46.792C91.3631 46.1947 91.7578 45.72 92.3338 45.368C92.9204 45.016 93.6031 44.84 94.3818 44.84C95.3311 44.84 96.0938 45.0693 96.6698 45.528C97.2458 45.9867 97.5338 46.664 97.5338 47.56V51.496C97.5338 51.688 97.5818 51.832 97.6778 51.928C97.7738 52.024 97.9284 52.072 98.1418 52.072ZM93.7898 52.04C94.4618 52.04 95.0378 51.88 95.5178 51.56C96.0084 51.24 96.2538 50.824 96.2538 50.312V49.208L94.4618 49.544C93.7471 49.672 93.2138 49.8587 92.8618 50.104C92.5098 50.3387 92.3338 50.6427 92.3338 51.016C92.3338 51.3467 92.4618 51.6027 92.7178 51.784C92.9738 51.9547 93.3311 52.04 93.7898 52.04ZM107.019 45L103.691 53H102.411L99.0826 45H100.539L103.067 51.704L105.675 45H107.019ZM109.331 43.464C109.043 43.464 108.808 43.3787 108.627 43.208C108.456 43.0267 108.371 42.792 108.371 42.504C108.371 42.216 108.456 41.9867 108.627 41.816C108.808 41.6347 109.043 41.544 109.331 41.544C109.619 41.544 109.848 41.6347 110.019 41.816C110.2 41.9867 110.291 42.216 110.291 42.504C110.291 42.792 110.2 43.0267 110.019 43.208C109.848 43.3787 109.619 43.464 109.331 43.464ZM109.971 53H108.691V45H109.971V53ZM116.829 44.84C117.736 44.84 118.482 45.1013 119.069 45.624C119.656 46.1467 119.949 46.8987 119.949 47.88V53H118.669V48.328C118.669 47.496 118.488 46.8933 118.125 46.52C117.773 46.1467 117.298 45.96 116.701 45.96C116.274 45.96 115.874 46.056 115.501 46.248C115.128 46.4293 114.818 46.7333 114.573 47.16C114.338 47.576 114.221 48.104 114.221 48.744V53H112.941V45H114.061L114.141 46.248C114.408 45.768 114.776 45.416 115.245 45.192C115.714 44.9573 116.242 44.84 116.829 44.84ZM127.311 51.976C128.069 51.976 128.661 52.1467 129.087 52.488C129.514 52.8293 129.727 53.2933 129.727 53.88C129.727 54.392 129.551 54.84 129.199 55.224C128.847 55.6187 128.367 55.9173 127.759 56.12C127.162 56.3333 126.501 56.44 125.775 56.44C124.559 56.44 123.642 56.2427 123.023 55.848C122.405 55.464 122.095 54.9573 122.095 54.328C122.095 53.9653 122.218 53.6453 122.463 53.368C122.719 53.0907 123.066 52.8933 123.503 52.776C123.173 52.616 122.906 52.4133 122.703 52.168C122.511 51.9227 122.415 51.6347 122.415 51.304C122.415 50.9093 122.522 50.584 122.735 50.328C122.949 50.0613 123.242 49.864 123.615 49.736C123.231 49.5013 122.938 49.1973 122.735 48.824C122.543 48.44 122.447 48.0133 122.447 47.544C122.447 47.0213 122.586 46.5573 122.863 46.152C123.141 45.736 123.53 45.416 124.031 45.192C124.533 44.9573 125.098 44.84 125.727 44.84C126.325 44.84 126.869 44.9467 127.359 45.16C127.658 44.072 128.41 43.528 129.615 43.528L129.903 44.648C128.858 44.648 128.223 44.9413 127.999 45.528C128.319 45.7733 128.565 46.0667 128.735 46.408C128.917 46.7493 129.007 47.128 129.007 47.544C129.007 48.0667 128.869 48.536 128.591 48.952C128.314 49.3573 127.925 49.6773 127.423 49.912C126.922 50.136 126.357 50.248 125.727 50.248C125.258 50.248 124.847 50.2 124.495 50.104C124.175 50.1787 123.946 50.296 123.807 50.456C123.669 50.616 123.599 50.8347 123.599 51.112C123.599 51.3893 123.695 51.6027 123.887 51.752C124.079 51.9013 124.335 51.976 124.655 51.976H127.311ZM125.727 45.88C125.173 45.88 124.709 46.0347 124.335 46.344C123.962 46.6533 123.775 47.0533 123.775 47.544C123.775 48.0347 123.962 48.4347 124.335 48.744C124.709 49.0533 125.173 49.208 125.727 49.208C126.282 49.208 126.746 49.0533 127.119 48.744C127.493 48.4347 127.679 48.0347 127.679 47.544C127.679 47.0533 127.493 46.6533 127.119 46.344C126.746 46.0347 126.282 45.88 125.727 45.88ZM125.919 55.368C126.73 55.368 127.37 55.2347 127.839 54.968C128.309 54.712 128.543 54.3973 128.543 54.024C128.543 53.7147 128.421 53.48 128.175 53.32C127.941 53.16 127.535 53.08 126.959 53.08H124.815C124.325 53.08 123.946 53.1653 123.679 53.336C123.413 53.5173 123.279 53.7627 123.279 54.072C123.279 54.4773 123.503 54.792 123.951 55.016C124.399 55.2507 125.055 55.368 125.919 55.368ZM141.546 51.976C142.303 51.976 142.895 52.1467 143.322 52.488C143.748 52.8293 143.962 53.2933 143.962 53.88C143.962 54.392 143.786 54.84 143.434 55.224C143.082 55.6187 142.602 55.9173 141.994 56.12C141.396 56.3333 140.735 56.44 140.01 56.44C138.794 56.44 137.876 56.2427 137.258 55.848C136.639 55.464 136.33 54.9573 136.33 54.328C136.33 53.9653 136.452 53.6453 136.698 53.368C136.954 53.0907 137.3 52.8933 137.738 52.776C137.407 52.616 137.14 52.4133 136.938 52.168C136.746 51.9227 136.65 51.6347 136.65 51.304C136.65 50.9093 136.756 50.584 136.97 50.328C137.183 50.0613 137.476 49.864 137.85 49.736C137.466 49.5013 137.172 49.1973 136.97 48.824C136.778 48.44 136.682 48.0133 136.682 47.544C136.682 47.0213 136.82 46.5573 137.098 46.152C137.375 45.736 137.764 45.416 138.266 45.192C138.767 44.9573 139.332 44.84 139.962 44.84C140.559 44.84 141.103 44.9467 141.594 45.16C141.892 44.072 142.644 43.528 143.85 43.528L144.138 44.648C143.092 44.648 142.458 44.9413 142.234 45.528C142.554 45.7733 142.799 46.0667 142.97 46.408C143.151 46.7493 143.242 47.128 143.242 47.544C143.242 48.0667 143.103 48.536 142.826 48.952C142.548 49.3573 142.159 49.6773 141.658 49.912C141.156 50.136 140.591 50.248 139.962 50.248C139.492 50.248 139.082 50.2 138.73 50.104C138.41 50.1787 138.18 50.296 138.042 50.456C137.903 50.616 137.834 50.8347 137.834 51.112C137.834 51.3893 137.93 51.6027 138.122 51.752C138.314 51.9013 138.57 51.976 138.89 51.976H141.546ZM139.962 45.88C139.407 45.88 138.943 46.0347 138.57 46.344C138.196 46.6533 138.01 47.0533 138.01 47.544C138.01 48.0347 138.196 48.4347 138.57 48.744C138.943 49.0533 139.407 49.208 139.962 49.208C140.516 49.208 140.98 49.0533 141.354 48.744C141.727 48.4347 141.914 48.0347 141.914 47.544C141.914 47.0533 141.727 46.6533 141.354 46.344C140.98 46.0347 140.516 45.88 139.962 45.88ZM140.154 55.368C140.964 55.368 141.604 55.2347 142.074 54.968C142.543 54.712 142.778 54.3973 142.778 54.024C142.778 53.7147 142.655 53.48 142.41 53.32C142.175 53.16 141.77 53.08 141.194 53.08H139.05C138.559 53.08 138.18 53.1653 137.914 53.336C137.647 53.5173 137.514 53.7627 137.514 54.072C137.514 54.4773 137.738 54.792 138.186 55.016C138.634 55.2507 139.29 55.368 140.154 55.368ZM149.239 44.84C150.444 44.84 151.388 45.208 152.071 45.944C152.764 46.68 153.111 47.6987 153.111 49C153.111 50.3013 152.764 51.32 152.071 52.056C151.388 52.792 150.444 53.16 149.239 53.16C148.034 53.16 147.084 52.792 146.391 52.056C145.708 51.32 145.367 50.3013 145.367 49C145.367 47.6987 145.708 46.68 146.391 45.944C147.084 45.208 148.034 44.84 149.239 44.84ZM149.239 45.944C148.428 45.944 147.794 46.216 147.335 46.76C146.876 47.304 146.647 48.0507 146.647 49C146.647 49.9493 146.876 50.696 147.335 51.24C147.794 51.784 148.428 52.056 149.239 52.056C150.05 52.056 150.684 51.784 151.143 51.24C151.602 50.696 151.831 49.9493 151.831 49C151.831 48.0507 151.602 47.304 151.143 46.76C150.684 46.216 150.05 45.944 149.239 45.944ZM162.157 52.072C162.371 52.072 162.584 52.0453 162.797 51.992L162.717 53C162.419 53.1067 162.099 53.16 161.757 53.16C161.341 53.16 161.011 53.0693 160.765 52.888C160.531 52.7067 160.381 52.4027 160.317 51.976C160.072 52.3493 159.709 52.6427 159.229 52.856C158.76 53.0587 158.264 53.16 157.741 53.16C156.952 53.16 156.301 52.9787 155.789 52.616C155.277 52.2427 155.021 51.7093 155.021 51.016C155.021 50.408 155.288 49.8853 155.821 49.448C156.355 49 157.128 48.6907 158.141 48.52L160.269 48.168V47.72C160.269 47.1867 160.104 46.76 159.773 46.44C159.443 46.12 158.984 45.96 158.397 45.96C157.864 45.96 157.4 46.088 157.005 46.344C156.621 46.6 156.323 46.9787 156.109 47.48L155.165 46.792C155.379 46.1947 155.773 45.72 156.349 45.368C156.936 45.016 157.619 44.84 158.397 44.84C159.347 44.84 160.109 45.0693 160.685 45.528C161.261 45.9867 161.549 46.664 161.549 47.56V51.496C161.549 51.688 161.597 51.832 161.693 51.928C161.789 52.024 161.944 52.072 162.157 52.072ZM157.805 52.04C158.477 52.04 159.053 51.88 159.533 51.56C160.024 51.24 160.269 50.824 160.269 50.312V49.208L158.477 49.544C157.763 49.672 157.229 49.8587 156.877 50.104C156.525 50.3387 156.349 50.6427 156.349 51.016C156.349 51.3467 156.477 51.6027 156.733 51.784C156.989 51.9547 157.347 52.04 157.805 52.04ZM165.876 50.856C165.876 51.2613 165.935 51.544 166.052 51.704C166.18 51.8533 166.409 51.928 166.74 51.928C166.964 51.928 167.156 51.912 167.316 51.88C167.487 51.848 167.684 51.7893 167.908 51.704L167.7 52.936C167.348 53.0853 166.953 53.16 166.516 53.16C165.865 53.16 165.38 52.984 165.06 52.632C164.751 52.28 164.596 51.7413 164.596 51.016V41.32H165.876V50.856Z" fill="#708797"/>
<path fill-rule="evenodd" clip-rule="evenodd" d="M14.1816 17.1279H17.7269C18.2334 17.1279 18.6478 17.5423 18.6478 18.0488V27.8099C18.6478 28.3164 18.2334 28.7308 17.7269 28.7308H14.1816C13.6751 28.7308 13.2607 28.3164 13.2607 27.8099V18.0488C13.2607 17.5423 13.6751 17.1279 14.1816 17.1279Z" fill="#2F7CF8"/>
<path fill-rule="evenodd" clip-rule="evenodd" d="M5.57146 29.5134L29.7441 13.8588C29.9743 13.6746 30.3427 13.7206 30.5269 13.9508L32.4146 16.8976C32.5528 17.1739 32.4607 17.4962 32.1844 17.6343L8.01175 33.289C7.78153 33.4732 7.41319 33.4271 7.22901 33.1969L5.34124 30.2501C5.20311 30.0199 5.34124 29.6976 5.57146 29.5134Z" fill="#2658CD"/>
<path d="M60.086 45.3984H60.0399C59.8097 45.3984 59.6256 45.4444 59.3953 45.4905C58.7047 43.6487 56.955 42.3135 54.8371 42.3135C52.1666 42.3135 50.0025 44.4775 50.0486 47.148C50.0486 49.7264 52.1205 51.8444 54.6529 51.9365H54.6989C54.745 51.9365 54.8371 51.9365 54.8831 51.9365C54.9291 51.9365 54.9752 51.9365 55.0212 51.9365H63.8615V49.22C63.9076 47.148 62.204 45.4444 60.086 45.3984Z" fill="#6EA9A1"/>
<path d="M13.9976 47.1481C13.9976 44.4776 11.8336 42.3136 9.16307 42.3596C7.09113 42.3596 5.34149 43.6949 4.65084 45.5366C4.42062 45.4905 4.19041 45.4445 3.96019 45.4445H3.91415C1.79616 45.4445 0.092564 47.1941 0.138607 49.3121V52.0287H9.02494C9.07098 52.0287 9.16307 52.0287 9.20911 52.0287C9.25515 52.0287 9.3012 52.0287 9.34724 52.0287C11.9257 51.8905 13.9976 49.7265 13.9976 47.1481Z" fill="#99D3CB"/>
<path fill-rule="evenodd" clip-rule="evenodd" d="M8.83984 32.4142L25.7838 21.1341V8.70215L55.6654 20.8109L55.4814 51.9822H9.02384L8.83984 32.4142Z" fill="#2F7CF8"/>
<path d="M35.0851 30.3426C37.8315 30.3426 40.0579 28.1162 40.0579 25.3698C40.0579 22.6234 37.8315 20.397 35.0851 20.397C32.3387 20.397 30.1123 22.6234 30.1123 25.3698C30.1123 28.1162 32.3387 30.3426 35.0851 30.3426Z" fill="#2658CD"/>
<path d="M34.7637 18.2783V32.5519" stroke="#2F7CF8" stroke-width="1.151"/>
<path d="M42.0836 25.416H27.8564" stroke="#2F7CF8" stroke-width="1.151"/>
<path fill-rule="evenodd" clip-rule="evenodd" d="M15.2861 51.9367V34.6245C15.2861 34.118 15.7005 33.7036 16.207 33.7036H24.3106C24.8171 33.7036 25.2315 34.118 25.2315 34.6245V51.9367" fill="#2658CD"/>
<path d="M25.2319 41.6226H22.5615" stroke="#2F7CF8" stroke-width="1.151"/>
<path d="M29.4677 33.5654H48.3454C48.8519 33.5654 49.2663 33.9798 49.2663 34.4863V44.1554C49.2663 44.6618 48.8519 45.0762 48.3454 45.0762H29.4677C28.9613 45.0762 28.5469 44.6618 28.5469 44.1554V34.4863C28.5469 33.9798 28.9613 33.5654 29.4677 33.5654Z" fill="#2658CD"/>
<path d="M35.1777 32V46.2736" stroke="#2F7CF8" stroke-width="1.151"/>
<path d="M42.5908 32.4609V46.7345" stroke="#2F7CF8" stroke-width="1.151"/>
<path d="M51.9356 39.5967H26.9355" stroke="#2F7CF8" stroke-width="1.151"/>
<path fill-rule="evenodd" clip-rule="evenodd" d="M58.1524 21.0877L26.3826 6.67623C26.1063 6.5381 25.784 6.63018 25.5999 6.8604L24.1725 10.0834C24.0805 10.3597 24.2186 10.682 24.5409 10.7741L56.3107 25.1856C56.5869 25.3237 56.9092 25.2316 57.0934 25.0014L58.5207 21.7784C58.6128 21.5021 58.4747 21.1798 58.1524 21.0877Z" fill="#2658CD"/>
<path d="M43.05 26.1073C47.1183 26.1073 50.4164 22.8093 50.4164 18.7409C50.4164 14.6726 47.1183 11.3745 43.05 11.3745C38.9816 11.3745 35.6836 14.6726 35.6836 18.7409C35.6836 22.8093 38.9816 26.1073 43.05 26.1073Z" fill="#6EA9A1"/>
<path d="M43.0492 24.4031C46.1005 24.4031 48.574 21.9296 48.574 18.8783C48.574 15.8271 46.1005 13.3535 43.0492 13.3535C39.998 13.3535 37.5244 15.8271 37.5244 18.8783C37.5244 21.9296 39.998 24.4031 43.0492 24.4031Z" fill="#99D3CB"/>
<path fill-rule="evenodd" clip-rule="evenodd" d="M44.385 18.1873C44.0627 18.0031 43.7404 17.865 43.4181 17.7729C43.2339 17.6808 43.0497 17.5887 42.8655 17.4966C42.6353 17.3585 42.5893 17.0822 42.7274 16.8981C42.7735 16.806 42.8655 16.7599 42.9576 16.7139C43.0497 16.6678 43.1878 16.6678 43.2799 16.6678C43.6943 16.6218 44.1087 16.7139 44.5231 16.8981C44.7073 16.9901 44.7994 16.9441 44.8454 16.7599C44.8914 16.5297 44.9835 16.3455 45.0296 16.1153C45.0756 16.0232 45.0296 15.8851 44.8914 15.8391C44.8914 15.8391 44.8914 15.8391 44.8454 15.8391C44.6152 15.747 44.3389 15.6549 44.0627 15.6089C43.6943 15.5628 43.6943 15.5628 43.6943 15.1945C43.6943 14.688 43.6943 14.688 43.1878 14.688C43.0958 14.688 43.0497 14.688 42.9576 14.688C42.7274 14.688 42.6814 14.734 42.6814 14.9642C42.6814 15.0563 42.6814 15.1484 42.6814 15.2865C42.6814 15.6089 42.6814 15.6089 42.3591 15.7009C41.6684 15.8851 41.1619 16.4837 41.1159 17.2204C41.0699 17.865 41.4382 18.4175 42.0368 18.6937C42.4051 18.8779 42.7735 19.0621 43.1418 19.2002C43.2799 19.2463 43.4181 19.3383 43.5562 19.4304C43.7864 19.6146 43.8785 19.9369 43.6943 20.1671C43.6483 20.2592 43.5101 20.3513 43.4181 20.3513C43.1878 20.4434 42.9576 20.4894 42.6814 20.4434C42.313 20.3973 41.9447 20.3053 41.5763 20.1211C41.3922 20.029 41.3001 20.029 41.254 20.2592C41.208 20.4434 41.1619 20.6276 41.0699 20.8117C40.9778 21.0419 41.0238 21.134 41.254 21.2261C41.5763 21.3642 41.8986 21.4563 42.2209 21.5024C42.4972 21.5484 42.4972 21.5484 42.4972 21.8247C42.4972 21.9628 42.4972 22.0549 42.4972 22.193C42.4972 22.3312 42.5893 22.4232 42.6814 22.4232H42.7274C42.9116 22.4232 43.0958 22.4232 43.2799 22.4232C43.372 22.4232 43.5101 22.3312 43.5101 22.2391V22.193C43.5101 22.0089 43.5101 21.8707 43.5101 21.6865C43.5101 21.5484 43.6022 21.4103 43.7404 21.3642C44.1087 21.2722 44.477 21.0419 44.7073 20.7657C45.3058 20.075 45.2137 19.016 44.5231 18.4175C44.6152 18.3254 44.477 18.2333 44.385 18.1873Z" fill="#6EA9A1"/>
</svg>
