<svg width="560" height="24" viewBox="0 0 560 24" fill="none" xmlns="http://www.w3.org/2000/svg">
<path d="M158.312 17.5V19H149.152V5.8H150.752V17.5H158.312ZM169.092 13.48C169.092 13.8533 169.066 14.2267 169.012 14.6H161.472C161.566 15.6133 161.899 16.4 162.472 16.96C163.059 17.52 163.812 17.8 164.732 17.8C165.466 17.8 166.072 17.6733 166.552 17.42C167.046 17.1667 167.379 16.8 167.552 16.32L168.892 17.02C168.492 17.7267 167.959 18.2667 167.292 18.64C166.626 19.0133 165.772 19.2 164.732 19.2C163.226 19.2 162.039 18.74 161.172 17.82C160.319 16.9 159.892 15.6267 159.892 14C159.892 12.3733 160.299 11.1 161.112 10.18C161.939 9.26 163.106 8.8 164.612 8.8C165.546 8.8 166.352 9.00667 167.032 9.42C167.712 9.83333 168.226 10.3933 168.572 11.1C168.919 11.8067 169.092 12.6 169.092 13.48ZM164.612 10.2C163.732 10.2 163.019 10.46 162.472 10.98C161.939 11.5 161.612 12.2333 161.492 13.18H167.552C167.446 12.2467 167.139 11.52 166.632 11C166.126 10.4667 165.452 10.2 164.612 10.2ZM177.96 18.3C177.294 18.9 176.434 19.2 175.38 19.2C174.567 19.2 173.9 18.98 173.38 18.54C172.874 18.1 172.614 17.4267 172.6 16.52V10.38H170.6V9H172.6V6.6L174.2 6.16V9H177.9V10.38H174.2V16.24C174.2 16.72 174.334 17.0867 174.6 17.34C174.88 17.58 175.247 17.7 175.7 17.7C176.34 17.7 176.907 17.4533 177.4 16.96L177.96 18.3ZM181.239 10.14H179.999V5.2H181.759L181.239 10.14ZM188.053 19.2C187.093 19.2 186.226 19.0133 185.453 18.64C184.68 18.2533 184.113 17.6867 183.753 16.94L185.053 16.04C185.28 16.6267 185.673 17.0667 186.233 17.36C186.793 17.6533 187.453 17.8 188.213 17.8C189 17.8 189.6 17.66 190.013 17.38C190.426 17.1 190.633 16.7467 190.633 16.32C190.633 15.9333 190.44 15.6267 190.053 15.4C189.666 15.16 188.986 14.9533 188.013 14.78C187.053 14.6067 186.293 14.4 185.733 14.16C185.173 13.9067 184.766 13.5933 184.513 13.22C184.26 12.8333 184.133 12.36 184.133 11.8C184.133 11.2533 184.293 10.7533 184.613 10.3C184.933 9.84667 185.393 9.48667 185.993 9.22C186.593 8.94 187.286 8.8 188.073 8.8C189.14 8.8 189.993 9 190.633 9.4C191.286 9.78667 191.753 10.3867 192.033 11.2L190.673 12C190.46 11.36 190.133 10.9 189.693 10.62C189.266 10.34 188.726 10.2 188.073 10.2C187.42 10.2 186.866 10.3467 186.413 10.64C185.96 10.9333 185.733 11.2733 185.733 11.66C185.733 12.1 185.926 12.44 186.313 12.68C186.713 12.92 187.42 13.1267 188.433 13.3C189.82 13.5267 190.8 13.8667 191.373 14.32C191.946 14.7733 192.233 15.4133 192.233 16.24C192.233 16.8133 192.06 17.3267 191.713 17.78C191.38 18.22 190.893 18.5667 190.253 18.82C189.626 19.0733 188.893 19.2 188.053 19.2ZM206.936 8.8C208.336 8.8 209.443 9.26667 210.256 10.2C211.083 11.12 211.496 12.3867 211.496 14C211.496 15.6133 211.083 16.8867 210.256 17.82C209.443 18.74 208.336 19.2 206.936 19.2C206.203 19.2 205.543 19.04 204.956 18.72C204.383 18.4 203.936 17.9733 203.616 17.44V23.2H202.016V9H203.416L203.516 10.74C203.81 10.1533 204.256 9.68667 204.856 9.34C205.47 8.98 206.163 8.8 206.936 8.8ZM206.756 17.8C207.73 17.8 208.496 17.46 209.056 16.78C209.616 16.0867 209.896 15.16 209.896 14C209.896 12.84 209.616 11.92 209.056 11.24C208.496 10.5467 207.73 10.2 206.756 10.2C205.796 10.2 205.03 10.5333 204.456 11.2C203.896 11.8667 203.616 12.76 203.616 13.88V14.12C203.616 15.24 203.896 16.1333 204.456 16.8C205.03 17.4667 205.796 17.8 206.756 17.8ZM216.134 16.32C216.134 16.8267 216.207 17.18 216.354 17.38C216.514 17.5667 216.801 17.66 217.214 17.66C217.494 17.66 217.734 17.64 217.934 17.6C218.147 17.56 218.394 17.4867 218.674 17.38L218.414 18.92C217.974 19.1067 217.481 19.2 216.934 19.2C216.121 19.2 215.514 18.98 215.114 18.54C214.727 18.1 214.534 17.4267 214.534 16.52V4.4H216.134V16.32ZM228.927 17.84C229.194 17.84 229.461 17.8067 229.727 17.74L229.627 19C229.254 19.1333 228.854 19.2 228.427 19.2C227.907 19.2 227.494 19.0867 227.187 18.86C226.894 18.6333 226.707 18.2533 226.627 17.72C226.321 18.1867 225.867 18.5533 225.267 18.82C224.681 19.0733 224.061 19.2 223.407 19.2C222.421 19.2 221.607 18.9733 220.967 18.52C220.327 18.0533 220.007 17.3867 220.007 16.52C220.007 15.76 220.341 15.1067 221.007 14.56C221.674 14 222.641 13.6133 223.907 13.4L226.567 12.96V12.4C226.567 11.7333 226.361 11.2 225.947 10.8C225.534 10.4 224.961 10.2 224.227 10.2C223.561 10.2 222.981 10.36 222.487 10.68C222.007 11 221.634 11.4733 221.367 12.1L220.187 11.24C220.454 10.4933 220.947 9.9 221.667 9.46C222.401 9.02 223.254 8.8 224.227 8.8C225.414 8.8 226.367 9.08667 227.087 9.66C227.807 10.2333 228.167 11.08 228.167 12.2V17.12C228.167 17.36 228.227 17.54 228.347 17.66C228.467 17.78 228.661 17.84 228.927 17.84ZM223.487 17.8C224.327 17.8 225.047 17.6 225.647 17.2C226.261 16.8 226.567 16.28 226.567 15.64V14.26L224.327 14.68C223.434 14.84 222.767 15.0733 222.327 15.38C221.887 15.6733 221.667 16.0533 221.667 16.52C221.667 16.9333 221.827 17.2533 222.147 17.48C222.467 17.6933 222.914 17.8 223.487 17.8ZM236.915 8.8C238.049 8.8 238.982 9.12667 239.715 9.78C240.449 10.4333 240.815 11.3733 240.815 12.6V19H239.215V13.16C239.215 12.12 238.989 11.3667 238.535 10.9C238.095 10.4333 237.502 10.2 236.755 10.2C236.222 10.2 235.722 10.32 235.255 10.56C234.789 10.7867 234.402 11.1667 234.095 11.7C233.802 12.22 233.655 12.88 233.655 13.68V19H232.055V9H233.455L233.555 10.56C233.889 9.96 234.349 9.52 234.935 9.24C235.522 8.94667 236.182 8.8 236.915 8.8ZM254.547 20.68C254.16 21.64 253.727 22.3133 253.247 22.7C252.767 23.1 252.147 23.3 251.387 23.3C250.88 23.3 250.453 23.2333 250.107 23.1C249.773 22.9667 249.467 22.7533 249.187 22.46L249.747 21.1C250.133 21.6333 250.673 21.9 251.367 21.9C251.753 21.9 252.093 21.78 252.387 21.54C252.693 21.3133 252.96 20.8933 253.187 20.28L253.707 18.98L249.527 9H251.347L253.847 15.52L254.467 17.3L255.187 15.32L257.527 9H259.247L254.547 20.68ZM265.67 8.8C267.177 8.8 268.357 9.26 269.21 10.18C270.077 11.1 270.51 12.3733 270.51 14C270.51 15.6267 270.077 16.9 269.21 17.82C268.357 18.74 267.177 19.2 265.67 19.2C264.163 19.2 262.977 18.74 262.11 17.82C261.257 16.9 260.83 15.6267 260.83 14C260.83 12.3733 261.257 11.1 262.11 10.18C262.977 9.26 264.163 8.8 265.67 8.8ZM265.67 10.18C264.657 10.18 263.863 10.52 263.29 11.2C262.717 11.88 262.43 12.8133 262.43 14C262.43 15.1867 262.717 16.12 263.29 16.8C263.863 17.48 264.657 17.82 265.67 17.82C266.683 17.82 267.477 17.48 268.05 16.8C268.623 16.12 268.91 15.1867 268.91 14C268.91 12.8133 268.623 11.88 268.05 11.2C267.477 10.52 266.683 10.18 265.67 10.18ZM282.278 9V19H280.878L280.778 17.48C280.111 18.6267 278.918 19.2 277.198 19.2C276.118 19.2 275.231 18.9 274.538 18.3C273.858 17.7 273.518 16.78 273.518 15.54V9H275.118V15.12C275.118 16.0933 275.318 16.7867 275.718 17.2C276.118 17.6 276.704 17.8 277.478 17.8C278.398 17.8 279.158 17.52 279.758 16.96C280.371 16.4 280.678 15.56 280.678 14.44V9H282.278ZM290.721 8.8C291.201 8.8 291.567 8.86667 291.821 9L291.501 10.56C291.181 10.3867 290.761 10.3 290.241 10.3C289.814 10.3 289.394 10.4267 288.981 10.68C288.581 10.92 288.247 11.2933 287.981 11.8C287.727 12.2933 287.601 12.8933 287.601 13.6V19H286.001V9H287.301L287.521 10.64C288.081 9.41333 289.147 8.8 290.721 8.8ZM303.972 19.2C301.746 19.2 300.199 18.56 299.332 17.28L300.932 15.64C301.199 16.2133 301.579 16.62 302.072 16.86C302.579 17.0867 303.199 17.2 303.932 17.2C304.519 17.2 304.972 17.12 305.292 16.96C305.612 16.8 305.772 16.58 305.772 16.3C305.772 16.0733 305.619 15.88 305.312 15.72C305.019 15.56 304.506 15.4067 303.772 15.26C302.239 14.9533 301.159 14.5533 300.532 14.06C299.919 13.5533 299.612 12.8733 299.612 12.02C299.612 11.46 299.786 10.9333 300.132 10.44C300.479 9.94667 300.992 9.55333 301.672 9.26C302.352 8.95333 303.166 8.8 304.112 8.8C305.232 8.8 306.139 8.97333 306.832 9.32C307.526 9.65333 308.106 10.1867 308.572 10.92L306.872 12.36C306.579 11.8267 306.212 11.4333 305.772 11.18C305.346 10.9267 304.806 10.8 304.152 10.8C303.606 10.8 303.166 10.8933 302.832 11.08C302.512 11.2667 302.352 11.4933 302.352 11.76C302.352 12.04 302.512 12.2733 302.832 12.46C303.152 12.6467 303.719 12.82 304.532 12.98C305.986 13.2733 307.012 13.66 307.612 14.14C308.226 14.6067 308.532 15.26 308.532 16.1C308.532 17.0333 308.132 17.7867 307.332 18.36C306.546 18.92 305.426 19.2 303.972 19.2ZM319.857 17.34C320.137 17.34 320.364 17.3133 320.537 17.26L320.337 18.92C319.964 19.1067 319.531 19.2 319.037 19.2C317.757 19.2 316.991 18.7 316.737 17.7C316.444 18.1933 315.991 18.5667 315.377 18.82C314.764 19.0733 314.037 19.2 313.197 19.2C312.224 19.2 311.464 18.98 310.917 18.54C310.371 18.1 310.097 17.4667 310.097 16.64C310.097 15.0133 311.397 13.96 313.997 13.48L316.397 13.02V12.54C316.397 12.0067 316.244 11.5867 315.937 11.28C315.644 10.96 315.231 10.8 314.697 10.8C314.084 10.8 313.584 10.9333 313.197 11.2C312.811 11.4667 312.544 11.9 312.397 12.5L310.217 11.58C310.431 10.7133 310.911 10.0333 311.657 9.54C312.404 9.04667 313.377 8.8 314.577 8.8C316.004 8.8 317.117 9.11333 317.917 9.74C318.717 10.3533 319.117 11.2667 319.117 12.48V16.58C319.117 16.8467 319.177 17.04 319.297 17.16C319.417 17.28 319.604 17.34 319.857 17.34ZM314.057 17.34C314.644 17.34 315.177 17.2 315.657 16.92C316.151 16.6267 316.397 16.2333 316.397 15.74V14.7L314.257 15.18C313.804 15.2867 313.464 15.4333 313.237 15.62C313.024 15.7933 312.917 16.04 312.917 16.36C312.917 16.68 313.017 16.9267 313.217 17.1C313.417 17.26 313.697 17.34 314.057 17.34ZM331.211 9L327.411 19H324.251L320.451 9H323.391L325.851 17.08L328.371 9H331.211ZM334.109 7.56C332.976 7.56 332.409 7.07333 332.409 6.1C332.409 5.11333 332.976 4.62 334.109 4.62C335.242 4.62 335.809 5.11333 335.809 6.1C335.809 7.07333 335.242 7.56 334.109 7.56ZM335.469 19H332.729V9H335.469V19ZM344.334 8.8C345.414 8.8 346.28 9.11333 346.934 9.74C347.6 10.3667 347.934 11.2667 347.934 12.44V19H345.194V13.24C345.194 11.72 344.6 10.96 343.414 10.96C342.774 10.96 342.227 11.1867 341.774 11.64C341.334 12.0933 341.114 12.7867 341.114 13.72V19H338.374V9H340.834L340.914 10.78C341.247 10.1267 341.707 9.63333 342.294 9.3C342.88 8.96667 343.56 8.8 344.334 8.8ZM356.836 17.12C357.93 17.12 358.77 17.36 359.356 17.84C359.956 18.32 360.256 19.0067 360.256 19.9C360.256 20.9667 359.763 21.8 358.776 22.4C357.79 23 356.49 23.3 354.876 23.3C353.21 23.3 351.97 23.08 351.156 22.64C350.356 22.2 349.956 21.6 349.956 20.84C349.956 20.3867 350.11 19.9933 350.416 19.66C350.723 19.3267 351.176 19.0867 351.776 18.94C351.323 18.7533 350.963 18.4933 350.696 18.16C350.43 17.8133 350.296 17.4067 350.296 16.94C350.296 16.46 350.436 16.0467 350.716 15.7C350.996 15.3533 351.383 15.0933 351.876 14.92C351.37 14.6267 350.983 14.2533 350.716 13.8C350.45 13.3333 350.316 12.8 350.316 12.2C350.316 11.1467 350.723 10.32 351.536 9.72C352.363 9.10667 353.483 8.8 354.896 8.8C355.616 8.8 356.29 8.88667 356.916 9.06C357.09 8.27333 357.423 7.66 357.916 7.22C358.423 6.76667 359.103 6.56667 359.956 6.62L360.316 8.58C360.223 8.56667 360.083 8.56 359.896 8.56C359.403 8.56 358.99 8.64667 358.656 8.82C358.336 8.99333 358.11 9.22667 357.976 9.52C358.47 9.81333 358.843 10.1867 359.096 10.64C359.363 11.0933 359.496 11.6133 359.496 12.2C359.496 13.24 359.083 14.0667 358.256 14.68C357.443 15.28 356.323 15.58 354.896 15.58C354.243 15.58 353.643 15.52 353.096 15.4C352.576 15.5333 352.316 15.8333 352.316 16.3C352.316 16.5667 352.416 16.7733 352.616 16.92C352.816 17.0533 353.096 17.12 353.456 17.12H356.836ZM354.896 10.52C354.363 10.52 353.923 10.6733 353.576 10.98C353.243 11.2867 353.076 11.6867 353.076 12.18C353.076 12.6867 353.243 13.0933 353.576 13.4C353.923 13.7067 354.363 13.86 354.896 13.86C355.443 13.86 355.883 13.7067 356.216 13.4C356.563 13.0933 356.736 12.6867 356.736 12.18C356.736 11.6867 356.563 11.2867 356.216 10.98C355.883 10.6733 355.443 10.52 354.896 10.52ZM355.096 21.42C356.03 21.42 356.75 21.3 357.256 21.06C357.763 20.8333 358.016 20.54 358.016 20.18C358.016 19.9 357.896 19.6867 357.656 19.54C357.43 19.4067 357.05 19.34 356.516 19.34H353.796C352.69 19.34 352.136 19.64 352.136 20.24C352.136 20.6133 352.383 20.9 352.876 21.1C353.37 21.3133 354.11 21.42 355.096 21.42ZM374.141 17.12C375.234 17.12 376.074 17.36 376.661 17.84C377.261 18.32 377.561 19.0067 377.561 19.9C377.561 20.9667 377.068 21.8 376.081 22.4C375.094 23 373.794 23.3 372.181 23.3C370.514 23.3 369.274 23.08 368.461 22.64C367.661 22.2 367.261 21.6 367.261 20.84C367.261 20.3867 367.414 19.9933 367.721 19.66C368.028 19.3267 368.481 19.0867 369.081 18.94C368.628 18.7533 368.268 18.4933 368.001 18.16C367.734 17.8133 367.601 17.4067 367.601 16.94C367.601 16.46 367.741 16.0467 368.021 15.7C368.301 15.3533 368.688 15.0933 369.181 14.92C368.674 14.6267 368.288 14.2533 368.021 13.8C367.754 13.3333 367.621 12.8 367.621 12.2C367.621 11.1467 368.028 10.32 368.841 9.72C369.668 9.10667 370.788 8.8 372.201 8.8C372.921 8.8 373.594 8.88667 374.221 9.06C374.394 8.27333 374.728 7.66 375.221 7.22C375.728 6.76667 376.408 6.56667 377.261 6.62L377.621 8.58C377.528 8.56667 377.388 8.56 377.201 8.56C376.708 8.56 376.294 8.64667 375.961 8.82C375.641 8.99333 375.414 9.22667 375.281 9.52C375.774 9.81333 376.148 10.1867 376.401 10.64C376.668 11.0933 376.801 11.6133 376.801 12.2C376.801 13.24 376.388 14.0667 375.561 14.68C374.748 15.28 373.628 15.58 372.201 15.58C371.548 15.58 370.948 15.52 370.401 15.4C369.881 15.5333 369.621 15.8333 369.621 16.3C369.621 16.5667 369.721 16.7733 369.921 16.92C370.121 17.0533 370.401 17.12 370.761 17.12H374.141ZM372.201 10.52C371.668 10.52 371.228 10.6733 370.881 10.98C370.548 11.2867 370.381 11.6867 370.381 12.18C370.381 12.6867 370.548 13.0933 370.881 13.4C371.228 13.7067 371.668 13.86 372.201 13.86C372.748 13.86 373.188 13.7067 373.521 13.4C373.868 13.0933 374.041 12.6867 374.041 12.18C374.041 11.6867 373.868 11.2867 373.521 10.98C373.188 10.6733 372.748 10.52 372.201 10.52ZM372.401 21.42C373.334 21.42 374.054 21.3 374.561 21.06C375.068 20.8333 375.321 20.54 375.321 20.18C375.321 19.9 375.201 19.6867 374.961 19.54C374.734 19.4067 374.354 19.34 373.821 19.34H371.101C369.994 19.34 369.441 19.64 369.441 20.24C369.441 20.6133 369.688 20.9 370.181 21.1C370.674 21.3133 371.414 21.42 372.401 21.42ZM383.853 8.8C385.466 8.8 386.719 9.26 387.613 10.18C388.519 11.1 388.973 12.3733 388.973 14C388.973 15.6267 388.519 16.9 387.613 17.82C386.719 18.74 385.466 19.2 383.853 19.2C382.239 19.2 380.979 18.74 380.073 17.82C379.179 16.9 378.733 15.6267 378.733 14C378.733 12.3733 379.179 11.1 380.073 10.18C380.979 9.26 382.239 8.8 383.853 8.8ZM383.853 10.84C383.079 10.84 382.486 11.1067 382.073 11.64C381.673 12.16 381.473 12.9467 381.473 14C381.473 15.0533 381.673 15.8467 382.073 16.38C382.486 16.9 383.079 17.16 383.853 17.16C384.626 17.16 385.213 16.9 385.613 16.38C386.026 15.8467 386.233 15.0533 386.233 14C386.233 12.9467 386.026 12.16 385.613 11.64C385.213 11.1067 384.626 10.84 383.853 10.84ZM400.404 17.34C400.684 17.34 400.911 17.3133 401.084 17.26L400.884 18.92C400.511 19.1067 400.078 19.2 399.584 19.2C398.304 19.2 397.538 18.7 397.284 17.7C396.991 18.1933 396.538 18.5667 395.924 18.82C395.311 19.0733 394.584 19.2 393.744 19.2C392.771 19.2 392.011 18.98 391.464 18.54C390.918 18.1 390.644 17.4667 390.644 16.64C390.644 15.0133 391.944 13.96 394.544 13.48L396.944 13.02V12.54C396.944 12.0067 396.791 11.5867 396.484 11.28C396.191 10.96 395.778 10.8 395.244 10.8C394.631 10.8 394.131 10.9333 393.744 11.2C393.358 11.4667 393.091 11.9 392.944 12.5L390.764 11.58C390.978 10.7133 391.458 10.0333 392.204 9.54C392.951 9.04667 393.924 8.8 395.124 8.8C396.551 8.8 397.664 9.11333 398.464 9.74C399.264 10.3533 399.664 11.2667 399.664 12.48V16.58C399.664 16.8467 399.724 17.04 399.844 17.16C399.964 17.28 400.151 17.34 400.404 17.34ZM394.604 17.34C395.191 17.34 395.724 17.2 396.204 16.92C396.698 16.6267 396.944 16.2333 396.944 15.74V14.7L394.804 15.18C394.351 15.2867 394.011 15.4333 393.784 15.62C393.571 15.7933 393.464 16.04 393.464 16.36C393.464 16.68 393.564 16.9267 393.764 17.1C393.964 17.26 394.244 17.34 394.604 17.34ZM405.449 15.82C405.449 16.3 405.515 16.6333 405.649 16.82C405.795 17.0067 406.055 17.1 406.429 17.1C406.655 17.1 406.849 17.0867 407.009 17.06C407.182 17.02 407.382 16.96 407.609 16.88L407.369 18.78C407.155 18.9133 406.875 19.0133 406.529 19.08C406.182 19.16 405.842 19.2 405.509 19.2C404.535 19.2 403.822 18.9667 403.369 18.5C402.929 18.02 402.709 17.26 402.709 16.22V4.62H405.449V15.82ZM410.355 16.6C410.742 16.6 411.055 16.72 411.295 16.96C411.535 17.2 411.655 17.5133 411.655 17.9C411.655 18.2867 411.535 18.6 411.295 18.84C411.055 19.08 410.742 19.2 410.355 19.2C409.969 19.2 409.655 19.08 409.415 18.84C409.175 18.6 409.055 18.2867 409.055 17.9C409.055 17.5133 409.175 17.2 409.415 16.96C409.655 16.72 409.969 16.6 410.355 16.6Z" fill="#1B31A8"/>
</svg>
